<svg width="42" height="42" viewBox="0 0 42 42" fill="none" xmlns="http://www.w3.org/2000/svg">
<path d="M38.7271 41.8352C40.5299 41.8352 41.997 40.3681 41.997 38.5653V30.9358C41.997 29.133 40.5299 27.666 38.7271 27.666C36.1767 27.666 33.6698 27.2649 31.272 26.4736C30.6988 26.2926 30.0872 26.2706 29.5025 26.4099C28.9178 26.5493 28.3819 26.8448 27.952 27.2649L24.813 30.4039C19.3875 27.4585 14.9317 23.0041 11.9844 17.5797L15.0973 14.4472C15.9954 13.6145 16.318 12.348 15.9343 11.1294C15.1446 8.72783 14.7443 6.21537 14.7485 3.6873C14.7485 1.88454 13.2814 0.41748 11.4787 0.41748H3.84909C2.04633 0.41748 0.579269 1.88454 0.579269 3.6873C0.579269 24.7231 17.6913 41.8352 38.7271 41.8352ZM3.84909 2.59736H11.4787C11.7677 2.59736 12.045 2.71219 12.2494 2.91659C12.4538 3.121 12.5686 3.39823 12.5686 3.6873C12.5686 6.471 13.0046 9.20457 13.8613 11.7964C13.9242 11.9845 13.9316 12.1868 13.8825 12.3789C13.8334 12.5711 13.7299 12.745 13.5844 12.8798L9.32058 17.1655C12.889 24.2021 18.16 29.4731 25.2293 33.0721L29.4779 28.8213C29.6229 28.6778 29.8041 28.5765 30.0023 28.5281C30.2004 28.4797 30.408 28.4861 30.6027 28.5466C33.2099 29.4099 35.9434 29.8458 38.7271 29.8458C39.3266 29.8458 39.8171 30.3363 39.8171 30.9358V38.5653C39.8171 39.1648 39.3266 39.6553 38.7271 39.6553C18.8946 39.6553 2.75915 23.5198 2.75915 3.6873C2.75915 3.39823 2.87398 3.121 3.07838 2.91659C3.28279 2.71219 3.56002 2.59736 3.84909 2.59736Z" fill="black"/>
</svg>
