<svg width="45" height="44" viewBox="0 0 45 44" fill="none" xmlns="http://www.w3.org/2000/svg">
<path d="M7.2744 0.926758H37.7927C39.6605 0.926758 41.4519 1.66875 42.7726 2.98951C44.0934 4.31027 44.8354 6.10161 44.8354 7.96944V29.0975C44.8354 30.9653 44.0934 32.7567 42.7726 34.0774C41.4519 35.3982 39.6605 36.1402 37.7927 36.1402H29.5762L22.5336 43.1829L15.4909 36.1402H7.2744C5.40657 36.1402 3.61523 35.3982 2.29447 34.0774C0.973715 32.7567 0.23172 30.9653 0.23172 29.0975V7.96944C0.23172 6.10161 0.973715 4.31027 2.29447 2.98951C3.61523 1.66875 5.40657 0.926758 7.2744 0.926758ZM7.2744 3.27432C6.02918 3.27432 4.83496 3.76898 3.95445 4.64949C3.07394 5.52999 2.57928 6.72422 2.57928 7.96944V29.0975C2.57928 30.3427 3.07394 31.5369 3.95445 32.4174C4.83496 33.298 6.02918 33.7926 7.2744 33.7926H16.4628L22.5336 39.8634L28.6043 33.7926H37.7927C39.0379 33.7926 40.2321 33.298 41.1126 32.4174C41.9932 31.5369 42.4878 30.3427 42.4878 29.0975V7.96944C42.4878 6.72422 41.9932 5.52999 41.1126 4.64949C40.2321 3.76898 39.0379 3.27432 37.7927 3.27432H7.2744ZM7.2744 10.317H37.7927V12.6646H7.2744V10.317ZM7.2744 17.3597H35.4451V19.7072H7.2744V17.3597ZM7.2744 24.4024H26.0549V26.7499H7.2744V24.4024Z" fill="black"/>
</svg>
